<svg width="169" height="179" viewBox="0 0 169 179" fill="none" xmlns="http://www.w3.org/2000/svg">
<path d="M168 69.8682V158C168 169.598 158.598 179 147 179H21C9.40202 179 1.61075e-07 169.598 0 158V22C0 10.402 9.40202 1 21 1H102.436L168 69.8682Z" fill="#FCF9C3"/>
<path d="M79.3275 36.166C74.059 30.5068 74.3757 21.6481 80.0349 16.3796L92.7531 4.53947C98.4123 -0.729029 107.271 -0.412306 112.539 5.2469L164.547 61.1107C169.815 66.7699 169.498 75.6286 163.839 80.8971L151.121 92.7372C145.462 98.0057 136.603 97.689 131.334 92.0298L79.3275 36.166Z" fill="#FCF9C3"/>
</svg>
