<svg width="175" height="183" viewBox="0 0 175 183" fill="none" xmlns="http://www.w3.org/2000/svg">
<path d="M105.726 0.981995C110.411 1.22968 114.996 3.28962 118.333 7.08649L169.669 65.4947C171.144 67.1726 172.248 69.0472 172.991 71.0191L173.33 71.3716V72.0035C174.416 75.4905 174.405 79.2238 173.33 82.6822V161.506C173.33 173.368 163.629 182.983 151.663 182.983H21.6621C9.69589 182.983 -0.00471895 173.368 -0.00491333 161.506V22.4156C-0.00481844 10.5542 9.69583 0.939026 21.6621 0.939026H105.684L105.726 0.981995Z" fill="black"/>
<path d="M104.264 2.22852C108.874 2.52223 113.371 4.57967 116.656 8.32812L166.152 64.8037C167.615 66.4731 168.713 68.3379 169.454 70.2988L170 70.8682V71.9902C170.824 75.06 170.816 78.2921 170 81.3408V159C170 170.598 160.542 180 148.875 180H22.125C10.4581 180 1.00016 170.598 1 159V23C1 11.402 10.458 2 22.125 2H104.045L104.264 2.22852Z" fill="#FCF9C3"/>
</svg>
